<svg x="0" y="0" width="700" height="350" viewBox="0 0 700 350" xmlns="http://www.w3.org/2000/svg" xmlns:xlink="http://www.w3.org/1999/xlink" xmlns:fi="http://pattern.flaticon.com/"><rect x="0px" y="0px" width="100%" height="100%" opacity="1" fill="#ffffff"/><defs><path d="m187.558594 0-187.558594 208.472656 70.316406 303.527344h234.484375l70.316407-303.527344zm129.625 325.363281c-23.800782-20.40625-56.121094-41.332031-93.882813-60.824219 43.808594-18.132812 86.128907-30.964843 116.140625-35.246093zm-59.613282-112.480469c.566407 2.140626.660157 4.347657.332032 6.492188-10.824219 3.667969-21.953125 7.753906-33.246094 12.203125-3.988281-26.441406-20.3125-48.890625-42.90625-61.28125 2.875-1.050781 12.246094-2.800781 21.695312-12.191406 6.203126-6.160157 16.296876-6.160157 22.5 0 5.644532 5.613281 12.691407 9.679687 20.371094 11.761719 8.4375 2.292968 13.488282 11.035156 11.25 19.488281-2.03125 7.695312-2.03125 15.828125.003906 23.527343zm-62.03125 30.832032c-2.664062 1.171875-5.324218 2.351562-7.988281 3.558594-28.582031-12.921876-59.789062-25.078126-90.417969-34.332032 9.953126-14.121094 26.292969-22.910156 44.261719-22.910156 29.703125 0 53.886719 24.039062 54.144531 53.683594zm132.222657-42.945313c-12.1875 2.113281-25.699219 5.261719-40.128907 9.339844-.25-1.644531-.578124-3.285156-1.007812-4.910156-.707031-2.667969-.707031-5.492188 0-8.160157 6.445312-24.367187-8.105469-49.566406-32.429688-56.171874-2.667968-.722657-5.109374-2.132813-7.070312-4.078126-17.882812-17.765624-46.976562-17.765624-64.863281 0-1.957031 1.945313-4.402344 3.355469-7.066407 4.078126-11.027343 2.996093-20.441406 10.054687-26.542968 19.441406-2.394532-.203125-4.8125-.332032-7.261719-.332032-31.648437 0-60.058594 17.542969-74.449219 44.816407-6.84375-1.601563-13.390625-2.945313-19.585937-4.019531l140.203125-155.839844zm-46.851563 281.175781h-186.707031l-58.527344-252.640624c74.609375 10.683593 214.933594 71.015624 273.71875 129.6875zm0 0" transform="matrix(0.10713552683591843 -0.01890626735985279 0.01890626735985279 0.10713552683591843 247.0453338623047 148.1193389892578)" id="L1_0"/><g transform="matrix(0.0889367163181305 0.06507564336061478 -0.06507564336061478 0.0889367163181305 157.46495056152344 66.8590316772461)" id="L1_1"><path d="m314.5 0c-19.851562 0-35.996094 16.148438-35.996094 35.996094v19.914062c-11.769531-11.835937-26.386718-20.832031-42.726562-25.867187l8.636718-9.253907-21.933593-20.46875-16.976563 18.195313-16.980468-18.195313-21.933594 20.46875 8.636718 9.253907c-16.339843 5.035156-30.957031 14.035156-42.726562 25.867187v-19.914062c0-19.847656-16.144531-35.996094-35.992188-35.996094-52.9375 0-96.007812 43.066406-96.007812 96.003906v319.988282c0 52.9375 43.066406 96.007812 96.007812 96.007812 19.847657 0 35.992188-16.148438 35.992188-35.996094v-19.910156c11.769531 11.835938 26.386719 20.832031 42.726562 25.867188l-8.636718 9.257812 21.933594 20.46875 16.980468-18.195312 16.976563 18.195312 21.933593-20.46875-8.636718-9.257812c16.339844-5.035157 30.957031-14.03125 42.726562-25.867188v19.910156c0 19.847656 16.144532 35.996094 35.996094 35.996094 52.9375 0 96.003906-43.070312 96.003906-96.007812v-319.988282c0-52.9375-43.066406-96.003906-96.003906-96.003906zm-212 476.003906c0 3.308594-2.6875 5.996094-5.992188 5.996094-36.398437 0-66.007812-29.609375-66.007812-66.007812v-319.988282c0-36.394531 29.609375-66.003906 66.007812-66.003906 3.304688 0 5.992188 2.6875 5.992188 5.996094zm103.003906-19.5c-40.253906 0-73.003906-32.746094-73.003906-73v-255.003906c0-40.25 32.75-73 73.003906-73 40.25 0 73 32.75 73 73v255.003906c0 40.253906-32.75 73-73 73zm175-40.511718c0 36.398437-29.609375 66.007812-66.003906 66.007812-3.308594 0-5.996094-2.6875-5.996094-5.996094 0-13.820312 0-430.78125 0-440.007812 0-3.304688 2.6875-5.996094 5.996094-5.996094 36.394531 0 66.003906 29.609375 66.003906 66.007812zm0 0"/><path d="m215.730469 229.707031c10.453125-9.746093 24.773437-23.089843 24.773437-48.25 0-25.164062-14.320312-38.507812-24.773437-48.25-10.007813-9.324219-15.226563-14.730469-15.226563-26.304687h-30.003906c0 25.164062 14.320312 38.507812 24.773438 48.25 10.007812 9.324218 15.230468 14.730468 15.230468 26.304687s-5.222656 16.976563-15.230468 26.300781c-10.453126 9.742188-24.773438 23.085938-24.773438 48.25 0 25.164063 14.320312 38.503907 24.777344 48.25 10.003906 9.320313 15.226562 14.726563 15.226562 26.296876 0 11.574218-5.222656 16.976562-15.226562 26.300781-10.457032 9.742187-24.777344 23.085937-24.777344 48.246093h30.003906c0-11.570312 5.21875-16.976562 15.222656-26.296874 10.457032-9.742188 24.777344-23.085938 24.777344-48.25 0-25.160157-14.320312-38.503907-24.773437-48.246094-10.007813-9.324219-15.226563-14.726563-15.226563-26.300782 0-11.574218 5.21875-16.980468 15.226563-26.300781zm0 0"/></g><g transform="matrix(0.11600970476865768 -0.03314562886953354 0.03314562886953354 0.11600970476865768 306.81622314453125 257.78680419921875)" id="L1_2"><path d="m256 0c-141.484375 0-256 114.496094-256 256 0 141.484375 114.496094 256 256 256 141.484375 0 256-114.496094 256-256 0-141.484375-114.496094-256-256-256zm0 30c121.351562 0 217.925781 94.6875 225.496094 211h-17.308594c-26.363281 0-47.808594 21.449219-47.808594 47.8125v30.472656c0 9.820313-7.992187 17.8125-17.8125 17.8125-9.820312 0-17.8125-7.992187-17.8125-17.8125v-30.472656c0-26.363281-21.445312-47.8125-47.8125-47.8125h-19.742187c-6.65625-25.367188-29.773438-44.136719-57.203125-44.136719-15.851563 0-30.253906 6.285157-40.882813 16.472657-8.773437-10.082032-21.679687-16.472657-36.0625-16.472657-26.363281 0-47.8125 21.449219-47.8125 47.8125v67.613281c0 9.820313-7.988281 17.808594-17.808593 17.808594-9.820313 0-17.8125-7.988281-17.8125-17.808594v-23.476562c0-26.363281-21.445313-47.8125-47.8125-47.8125h-17.300782c7.578125-116.4375 104.265625-211 225.496094-211zm0 196.863281c16.066406 0 29.136719 13.070313 29.136719 29.136719s-13.070313 29.136719-29.136719 29.136719-29.136719-13.070313-29.136719-29.136719 13.070313-29.136719 29.136719-29.136719zm0 255.136719c-121.351562 0-217.925781-94.6875-225.496094-211h17.308594c9.820312 0 17.808594 7.988281 17.808594 17.8125v23.476562c0 26.363282 21.449218 47.808594 47.8125 47.808594 26.363281 0 47.8125-21.445312 47.8125-47.808594v-67.613281c0-9.820312 7.988281-17.8125 17.8125-17.8125 9.820312 0 17.808594 7.992188 17.808594 17.8125v11.324219c0 32.605469 26.527343 59.136719 59.136718 59.136719 27.425782 0 50.542969-18.769531 57.199219-44.136719h19.746094c9.820312 0 17.8125 7.988281 17.8125 17.8125v30.472656c0 26.363282 21.445312 47.8125 47.808593 47.8125 26.363282 0 47.8125-21.449218 47.8125-47.8125v-30.472656c0-9.824219 7.988282-17.8125 17.8125-17.8125h17.308594c-7.585937 116.4375-104.273437 211-225.503906 211zm0 0"/><path d="m379.742188 111.039062 21.214843 21.214844-36.0625 36.058594-21.214843-21.210938zm0 0"/><path d="m132.257812 111.042969 36.058594 36.058593-21.210937 21.214844-36.0625-36.0625zm0 0"/><path d="m241 66h30v51h-30zm0 0"/></g><path d="m497.710938 27.105469c-23.21875-30.320313-66.546876-36.070313-96.871094-12.847657-15.703125 12.023438-67.246094 29.914063-144.878906 29.914063-77.632813 0-129.175782-17.890625-144.878907-29.914063-30.246093-23.164062-73.707031-17.402343-96.871093 12.851563-23.164063 30.25-17.398438 73.707031 12.851562 96.871094 34.621094 26.511719 89.144531 45.269531 152.941406 53.582031v118.382812h60.957032v216.054688h30v-216.054688h60.960937v-118.382812c63.796875-8.3125 118.316406-27.070312 152.941406-53.582031 30.25-23.164063 36.015625-66.621094 12.847657-96.875zm-287.710938 238.839843v-85.304687c10.15625.773437 20.488281 1.285156 30.960938 1.539063v83.765624zm91.921875 0h-30.960937v-83.765624c10.476562-.253907 20.808593-.765626 30.960937-1.539063zm164.703125-165.78125c-42.691406 32.691407-121.445312 52.210938-210.664062 52.210938-89.214844 0-167.96875-19.519531-210.660157-52.210938-17.117187-13.109374-20.378906-37.699218-7.273437-54.816406 7.6875-10.039062 19.324218-15.3125 31.089844-15.3125 8.292968 0 16.648437 2.621094 23.726562 8.039063 11.152344 8.542969 30.472656 17.117187 56.265625 23.765625l-12.453125 36.671875 28.402344 9.648437 13.621094-40.109375c18.640624 3.125 39.523437 5.25 62.28125 5.90625v40.554688h30v-40.554688c22.757812-.65625 43.640624-2.78125 62.28125-5.902343l13.621093 40.105468 28.402344-9.644531-12.453125-36.675781c25.792969-6.648438 45.113281-15.222656 56.265625-23.765625 17.15625-13.136719 41.671875-9.886719 54.816406 7.273437 13.109375 17.117188 9.847657 41.707032-7.269531 54.816406zm0 0" transform="matrix(0.09389456361532211 0.018778912723064423 -0.018778912723064423 0.09389456361532211 179.77040100097656 202.15557861328125)" id="L1_3"/><g transform="matrix(0.0988149642944336 0.01129313837736845 -0.01129313837736845 0.0988149642944336 149.46775817871094 290.6062927246094)" id="L1_4"><path d="m488.601562 224.8125c-8.070312-137.78125-109.203124-177.234375-148.90625-187.410156-16.792968-22.671875-43.738281-37.402344-74.058593-37.402344-31.699219 0-60.34375 13.3125-80.648438 34.636719-12.671875 2.242187-43.976562 9.546875-75.835937 30.582031-36.535156 24.117188-80.535156 71.269531-85.746094 159.585938-15.476562 12.980468-21.796875 28.75-23.40625 31.335937l51.828125 233.429687h408.34375l51.828125-233.429687c-1.625-2.609375-8.007812-18.417969-23.398438-31.328125zm-363.902343-133.882812c12.777343-8.566407 25.574219-14.53125 36.644531-18.652344-4.578125 12.175781-7.09375 25.351562-7.09375 39.109375h30.019531c0-44.867188 36.503907-81.367188 81.367188-81.367188 34.238281 0 62.09375 27.851563 62.09375 62.089844 0 25.734375-20.9375 46.671875-46.671875 46.671875-18.933594 0-34.335938-15.402344-34.335938-34.335938 0-13.488281 10.976563-24.464843 24.464844-24.464843v-30.019531c-30.042969 0-54.484375 24.441406-54.484375 54.484374 0 35.488282 28.867187 64.355469 64.355469 64.355469 42.289062 0 76.691406-34.402343 76.691406-76.691406 0-6.082031-.597656-12.027344-1.730469-17.78125 56.160157 22.9375 92.546875 68.851563 101.078125 135.753906-21.804687-3.390625-42.195312 5.746094-57 21.996094-27.589844-30.28125-68.515625-30.234375-96.066406 0-27.589844-30.28125-68.515625-30.234375-96.0625 0-27.589844-30.28125-68.515625-30.234375-96.0625 0-14.785156-16.226563-35.195312-25.394531-57.023438-21.992187 6.652344-52.484376 30.070313-92.503907 69.816407-119.15625zm311.386719 368.621093h-360.171876l-44.167968-198.929687c18.59375-29.925782 49.839844-28.003906 66.855468 4.5625l13.304688 25.46875 13.304688-25.46875c17.941406-34.339844 51.480468-34.402344 69.453124 0l13.304688 25.46875 13.304688-25.46875c17.941406-34.339844 51.480468-34.402344 69.457031 0l13.300781 25.46875 13.304688-25.46875c17.941406-34.339844 51.480468-34.402344 69.457031 0l13.304687 25.46875 13.304688-25.46875c17.042968-32.625 48.296875-34.433594 66.855468-4.5625zm0 0"/><path d="m240.988281 324.460938h30.023438v90.058593h-30.023438zm0 0"/><path d="m170.453125 417.148438-15.953125-90.0625 29.5625-5.234376 15.949219 90.0625zm0 0"/><path d="m341.554688 417.132812-29.5625-5.234374 15.949218-90.0625 29.5625 5.234374zm0 0"/></g><path d="m511.542969 221.933594c-7.632813-55.417969-43.972657-90.25-61.71875-104.234375l2.953125-9.183594c3.945312-12.265625-1.730469-25.429687-12.703125-30.09375l-61.824219-32.558594.074219-.238281c1.644531-5.417969 1.042969-11.339844-1.65625-16.25-2.542969-4.636719-6.667969-7.941406-11.601563-9.3125l-36.640625-10.183594c-47.378906-13.171875-97.46875-13.171875-144.847656 0l-36.640625 10.183594c-4.9375 1.371094-9.058594 4.679688-11.605469 9.316406-2.695312 4.90625-3.296875 10.828125-1.652343 16.246094l.074218.238281-61.824218 32.558594c-10.976563 4.664063-16.648438 17.828125-12.703126 30.089844l2.953126 9.1875c-17.75 13.984375-54.085938 48.816406-61.71875 104.234375-2.386719 17.324218 4.660156 34.070312 17.949218 42.65625 10.960938 7.082031 24.101563 7.148437 35.15625.210937 15.816406-9.925781 32.878906-25.886719 45.058594-38.277343 9.394531 12.320312 23.050781 7.851562 23.15625 7.867187l71.347656-30.648437c32.175782 11.1875 34.804688 14.945312 62.871094 14.945312 28.0625 0 30.714844-3.761719 62.871094-14.945312l71.351562 30.648437c.390625-.050781 13.488282 4.804687 23.152344-7.871094 12.183594 12.390625 29.246094 28.355469 45.058594 38.28125 11.078125 6.949219 24.21875 6.855469 35.15625-.210937 13.292968-8.585938 20.335937-25.332032 17.953125-42.65625zm-473.921875 17.457031c-1.050782.65625-1.6875.804687-2.929688 0-2.898437-1.871094-5.378906-7.0625-4.511718-13.363281 5.085937-36.914063 26.738281-63.054688 41.980468-77.289063l14.917969 46.394531c-9.941406 10.777344-31.332031 32.882813-49.457031 44.257813zm83.226562-37.25-31.78125-98.835937 53.570313-28.214844 31.632812 104.101562zm135.152344-13.453125c-21.566406 0-20.308594-1.816406-51.347656-12.699219-4.769532-15.691406-35.839844-117.9375-39.464844-129.859375l26.421875-7.34375c42.125-11.710937 86.65625-11.710937 128.78125 0l26.421875 7.34375-.183594.601563-39.28125 129.257812c-31.066406 10.890625-29.792968 12.699219-51.347656 12.699219zm81.730469-9.496094c5.730469-18.855468 25.015625-82.308594 31.636719-104.101562l53.570312 28.214844-31.78125 98.835937zm139.578125 60.199219c-1.242188.804687-1.878906.65625-2.925782 0-18.125-11.375-39.519531-33.484375-49.460937-44.257813 1.324219-4.117187 13.070313-40.640624 14.917969-46.394531 15.246094 14.234375 36.898437 40.375 41.980468 77.289063.867188 6.296875-1.609374 11.492187-4.511718 13.363281zm0 0" transform="matrix(0.11561322957277298 0.03303235024213791 -0.03303235024213791 0.11561322957277298 59.353065490722656 179.69236755371094)" id="L1_5"/><g transform="matrix(0.08558016270399094 0 0 0.08558016270399094 40.12259292602539 -0.42830002307891846)" id="L1_6"><path d="m497 241c-11.996094 0-23.15625-4.808594-31.417969-13.539062-8.121093-8.582032-12.417969-20.109376-11.785156-31.625l.921875-16.722657-16.722656.917969c-11.972656.652344-23.820313-3.960938-32.523438-12.671875-8.667968-8.671875-13.257812-20.492187-12.59375-32.425781l.929688-16.738282-16.738282.925782c-11.933593.65625-23.773437-3.949219-32.484374-12.652344-8.675782-8.671875-13.273438-20.503906-12.617188-32.464844l.917969-16.722656-16.71875.921875c-11.515625.628906-23.046875-3.664063-31.632813-11.789063-8.726562-8.261718-13.535156-19.417968-13.535156-31.414062v-15h-15c-141.480469 0-256 114.496094-256 256 0 141.480469 114.496094 256 256 256 141.480469 0 256-114.496094 256-256v-15zm-241 241c-124.902344 0-226-101.078125-226-226 0-120.785156 94.363281-218.742188 212.601562-225.613281 3.039063 14.359375 10.347657 27.441406 21.3125 37.816406 10.820313 10.242187 24.464844 16.890625 38.863282 19.175781 2.375 15.066406 9.527344 29.238282 20.601562 40.308594 11.089844 11.082031 25.257813 18.242188 40.308594 20.621094 2.367188 15.042968 9.507812 29.195312 20.5625 40.257812 11.097656 11.105469 25.289062 18.273438 40.371094 20.652344 2.285156 14.398438 8.929687 28.046875 19.171875 38.867188 10.378906 10.964843 23.460937 18.269531 37.820312 21.3125-6.867187 118.199218-104.796875 212.601562-225.613281 212.601562zm0 0"/><path d="m256 174.511719c-44.933594 0-81.488281 36.554687-81.488281 81.488281s36.554687 81.488281 81.488281 81.488281 81.488281-36.554687 81.488281-81.488281-36.554687-81.488281-81.488281-81.488281zm0 132.976562c-28.390625 0-51.488281-23.097656-51.488281-51.488281s23.097656-51.488281 51.488281-51.488281 51.488281 23.097656 51.488281 51.488281-23.097656 51.488281-51.488281 51.488281zm0 0"/><path d="m251.027344 421.3125-21.214844-21.210938 31.160156-31.160156 21.210938 21.214844zm0 0"/><path d="m260.972656 90.6875 21.210938 21.214844-31.15625 31.15625-21.214844-21.210938zm0 0"/><path d="m135.59375 339.375h44.0625v30h-44.0625zm0 0"/><path d="m90.6875 251.027344 21.214844-21.214844 31.15625 31.160156-21.210938 21.210938zm0 0"/><path d="m400.097656 282.191406-31.15625-31.160156 21.210938-21.210938 31.15625 31.15625zm0 0"/><path d="m142.625 135.59375h30v44.0625h-30zm0 0"/><path d="m339.375 332.34375h30v44.0625h-30zm0 0"/></g><g transform="matrix(0.10496116429567337 -0.024859223514795303 0.024859223514795303 0.10496116429567337 240.76597595214844 34.49390411376953)" id="L1_7"><path d="m512 88.890625c0-49.015625-39.875-88.890625-88.890625-88.890625h-334.21875c-49.015625 0-88.890625 39.875-88.890625 88.890625 0 14.480469 3.589844 28.894531 10.382812 41.671875l182.269532 343.339844c12.46875 23.5 36.746094 38.097656 63.347656 38.097656s50.875-14.597656 63.347656-38.097656c11.429688-21.523438 175.660156-330.886719 182.269532-343.335938 6.792968-12.78125 10.382812-27.195312 10.382812-41.675781zm-423.109375-58.890625h334.21875c32.472656 0 58.890625 26.417969 58.890625 58.890625 0 6.53125-1.128906 13.03125-3.25 19.191406-17.96875-1.769531-27.882812-8.582031-39.964844-16.902343-15.414062-10.613282-32.886718-22.644532-66.601562-22.644532-33.710938 0-51.183594 12.03125-66.601563 22.644532-14.082031 9.695312-25.203125 17.355468-49.585937 17.355468-24.382813 0-35.503906-7.660156-49.585938-17.355468-15.417968-10.613282-32.886718-22.644532-66.597656-22.644532s-51.183594 12.03125-66.601562 22.644532c-12.082032 8.320312-21.992188 15.132812-39.960938 16.902343-2.121094-6.160156-3.25-12.660156-3.25-19.191406 0-32.472656 26.417969-58.890625 58.890625-58.890625zm203.960937 429.839844c-7.257812 13.667968-21.375 22.160156-36.851562 22.160156s-29.59375-8.492188-36.851562-22.164062l-171.796876-323.609376c19.132813-4.003906 31.5625-12.546874 42.875-20.335937 14.082032-9.699219 25.203126-17.355469 49.585938-17.355469 24.378906 0 35.503906 7.660156 49.585938 17.355469 15.414062 10.613281 32.886718 22.644531 66.597656 22.644531 33.710937 0 51.183594-12.03125 66.601562-22.644531 14.082032-9.699219 25.207032-17.355469 49.585938-17.355469 24.382812 0 35.507812 7.660156 49.589844 17.355469 11.3125 7.789063 23.742187 16.332031 42.875 20.335937l-23.3125 43.910157c-14.246094-6.039063-29.644532-9.1875-45.265626-9.1875-63.917968 0-115.917968 52.007812-115.917968 115.929687 0 39.425782 20.332031 76.097656 52.878906 97.269532zm54.3125-102.316406c-22.847656-15.886719-37.015624-42.308594-37.015624-70.644532 0-47.382812 38.542968-85.929687 85.921874-85.929687 10.703126 0 21.257813 1.988281 31.128907 5.820312-4.789063 9.019531-75.230469 141.703125-80.035157 150.753907zm0 0"/><path d="m219.289062 205.347656c0-28.296875-23.023437-51.320312-51.320312-51.320312s-51.320312 23.019531-51.320312 51.320312c0 28.296875 23.023437 51.316406 51.320312 51.316406s51.320312-23.019531 51.320312-51.316406zm-51.320312 21.316406c-11.753906 0-21.320312-9.5625-21.320312-21.316406 0-11.757812 9.566406-21.320312 21.320312-21.320312 11.757812 0 21.320312 9.5625 21.320312 21.320312 0 11.753906-9.566406 21.316406-21.320312 21.316406zm0 0"/><path d="m230.566406 377.457031-36.773437-36.089843 21.011719-21.410157 36.773437 36.089844zm0 0"/></g><path d="m261 283.707031c-2.363281-77.320312-22.972656-153.519531-59.96875-221.523437v-62.183594h-140.828125v62.183594c-37 68-57.605469 144.203125-59.96875 221.523437h-.234375v228.292969h261.234375c0-7.746094 0-225.164062 0-228.292969zm-29.765625 30v117.292969h-201.234375v-117.292969zm-141.03125-283.707031h80.828125v21h-80.828125zm-6.070313 51h92.96875c33.101563 62.46875 51.585938 132.078125 53.882813 202.707031h-200.734375c2.296875-70.628906 20.78125-140.238281 53.882812-202.707031zm147.101563 401h-201.234375v-21h201.234375zm0 0" transform="matrix(0.1171875 0 0 0.1171875 9 89)" id="L1_8"/></defs><g fi:class="KUsePattern"><pattern id="pattern_L1_0" width="350" height="350" patternUnits="userSpaceOnUse"><use xlink:href="#L1_0" x="-350" y="-350"/><use xlink:href="#L1_0" x="0" y="-350"/><use xlink:href="#L1_0" x="350" y="-350"/><use xlink:href="#L1_0" x="-350" y="0"/><use xlink:href="#L1_0" x="0" y="0"/><use xlink:href="#L1_0" x="350" y="0"/><use xlink:href="#L1_0" x="-350" y="350"/><use xlink:href="#L1_0" x="0" y="350"/><use xlink:href="#L1_0" x="350" y="350"/></pattern><rect x="0" y="0" width="100%" height="100%" fill="url(#pattern_L1_0)"/></g><g fi:class="KUsePattern"><pattern id="pattern_L1_1" width="350" height="350" patternUnits="userSpaceOnUse"><use xlink:href="#L1_1" x="-350" y="-350"/><use xlink:href="#L1_1" x="0" y="-350"/><use xlink:href="#L1_1" x="350" y="-350"/><use xlink:href="#L1_1" x="-350" y="0"/><use xlink:href="#L1_1" x="0" y="0"/><use xlink:href="#L1_1" x="350" y="0"/><use xlink:href="#L1_1" x="-350" y="350"/><use xlink:href="#L1_1" x="0" y="350"/><use xlink:href="#L1_1" x="350" y="350"/></pattern><rect x="0" y="0" width="100%" height="100%" fill="url(#pattern_L1_1)"/></g><g fi:class="KUsePattern"><pattern id="pattern_L1_2" width="350" height="350" patternUnits="userSpaceOnUse"><use xlink:href="#L1_2" x="-350" y="-350"/><use xlink:href="#L1_2" x="0" y="-350"/><use xlink:href="#L1_2" x="350" y="-350"/><use xlink:href="#L1_2" x="-350" y="0"/><use xlink:href="#L1_2" x="0" y="0"/><use xlink:href="#L1_2" x="350" y="0"/><use xlink:href="#L1_2" x="-350" y="350"/><use xlink:href="#L1_2" x="0" y="350"/><use xlink:href="#L1_2" x="350" y="350"/></pattern><rect x="0" y="0" width="100%" height="100%" fill="url(#pattern_L1_2)"/></g><g fi:class="KUsePattern"><pattern id="pattern_L1_3" width="350" height="350" patternUnits="userSpaceOnUse"><use xlink:href="#L1_3" x="-350" y="-350"/><use xlink:href="#L1_3" x="0" y="-350"/><use xlink:href="#L1_3" x="350" y="-350"/><use xlink:href="#L1_3" x="-350" y="0"/><use xlink:href="#L1_3" x="0" y="0"/><use xlink:href="#L1_3" x="350" y="0"/><use xlink:href="#L1_3" x="-350" y="350"/><use xlink:href="#L1_3" x="0" y="350"/><use xlink:href="#L1_3" x="350" y="350"/></pattern><rect x="0" y="0" width="100%" height="100%" fill="url(#pattern_L1_3)"/></g><g fi:class="KUsePattern"><pattern id="pattern_L1_4" width="350" height="350" patternUnits="userSpaceOnUse"><use xlink:href="#L1_4" x="-350" y="-350"/><use xlink:href="#L1_4" x="0" y="-350"/><use xlink:href="#L1_4" x="350" y="-350"/><use xlink:href="#L1_4" x="-350" y="0"/><use xlink:href="#L1_4" x="0" y="0"/><use xlink:href="#L1_4" x="350" y="0"/><use xlink:href="#L1_4" x="-350" y="350"/><use xlink:href="#L1_4" x="0" y="350"/><use xlink:href="#L1_4" x="350" y="350"/></pattern><rect x="0" y="0" width="100%" height="100%" fill="url(#pattern_L1_4)"/></g><g fi:class="KUsePattern"><pattern id="pattern_L1_5" width="350" height="350" patternUnits="userSpaceOnUse"><use xlink:href="#L1_5" x="-350" y="-350"/><use xlink:href="#L1_5" x="0" y="-350"/><use xlink:href="#L1_5" x="350" y="-350"/><use xlink:href="#L1_5" x="-350" y="0"/><use xlink:href="#L1_5" x="0" y="0"/><use xlink:href="#L1_5" x="350" y="0"/><use xlink:href="#L1_5" x="-350" y="350"/><use xlink:href="#L1_5" x="0" y="350"/><use xlink:href="#L1_5" x="350" y="350"/></pattern><rect x="0" y="0" width="100%" height="100%" fill="url(#pattern_L1_5)"/></g><g fi:class="KUsePattern"><pattern id="pattern_L1_6" width="350" height="350" patternUnits="userSpaceOnUse"><use xlink:href="#L1_6" x="-350" y="-350"/><use xlink:href="#L1_6" x="0" y="-350"/><use xlink:href="#L1_6" x="350" y="-350"/><use xlink:href="#L1_6" x="-350" y="0"/><use xlink:href="#L1_6" x="0" y="0"/><use xlink:href="#L1_6" x="350" y="0"/><use xlink:href="#L1_6" x="-350" y="350"/><use xlink:href="#L1_6" x="0" y="350"/><use xlink:href="#L1_6" x="350" y="350"/></pattern><rect x="0" y="0" width="100%" height="100%" fill="url(#pattern_L1_6)"/></g><g fi:class="KUsePattern"><pattern id="pattern_L1_7" width="350" height="350" patternUnits="userSpaceOnUse"><use xlink:href="#L1_7" x="-350" y="-350"/><use xlink:href="#L1_7" x="0" y="-350"/><use xlink:href="#L1_7" x="350" y="-350"/><use xlink:href="#L1_7" x="-350" y="0"/><use xlink:href="#L1_7" x="0" y="0"/><use xlink:href="#L1_7" x="350" y="0"/><use xlink:href="#L1_7" x="-350" y="350"/><use xlink:href="#L1_7" x="0" y="350"/><use xlink:href="#L1_7" x="350" y="350"/></pattern><rect x="0" y="0" width="100%" height="100%" fill="url(#pattern_L1_7)"/></g><g fi:class="KUsePattern"><pattern id="pattern_L1_8" width="350" height="350" patternUnits="userSpaceOnUse"><use xlink:href="#L1_8" x="-350" y="-350"/><use xlink:href="#L1_8" x="0" y="-350"/><use xlink:href="#L1_8" x="350" y="-350"/><use xlink:href="#L1_8" x="-350" y="0"/><use xlink:href="#L1_8" x="0" y="0"/><use xlink:href="#L1_8" x="350" y="0"/><use xlink:href="#L1_8" x="-350" y="350"/><use xlink:href="#L1_8" x="0" y="350"/><use xlink:href="#L1_8" x="350" y="350"/></pattern><rect x="0" y="0" width="100%" height="100%" fill="url(#pattern_L1_8)"/></g></svg>